<svg xmlns="http://www.w3.org/2000/svg" width="375" height="812" viewBox="0 0 375 812">
  <rect width="375" height="812" fill="white" stroke="black" stroke-dasharray="4"/>

  <g transform="translate(0,0)">
    <rect width="375" height="64" fill="none" stroke="black" stroke-dasharray="4"/>
    <text font-family="sans-serif" x="16" y="32" font-size="18" fill="black">Mis eventos</text>
    <text font-family="sans-serif" x="16" y="50" font-size="11" fill="black">Corregir aca se ve en un solo lugar.</text>
  </g>

  <g transform="translate(16,80)">
    <rect width="343" height="96" fill="none" stroke="black"/>
    <text font-family="sans-serif" x="16" y="30" font-size="14" fill="black">Noche de cumbia</text>
    <rect x="243" y="14" width="84" height="20" fill="none" stroke="black" stroke-dasharray="4"/>
    <text font-family="sans-serif" x="285" y="28" text-anchor="middle" font-size="10" fill="black">Vigente</text>
    <text font-family="sans-serif" x="16" y="54" font-size="12" fill="black">Vie 12 sep · 21:00 · Bs 30</text>
    <text font-family="sans-serif" x="16" y="78" font-size="12" fill="black">12 interesados</text>
    <rect x="243" y="52" width="84" height="32" fill="none" stroke="black"/>
    <text font-family="sans-serif" x="285" y="72" text-anchor="middle" font-size="12" fill="black">Editar</text>
  </g>

  <g transform="translate(16,192)">
    <rect width="343" height="96" fill="none" stroke="black"/>
    <text font-family="sans-serif" x="16" y="30" font-size="14" fill="black">Jam abierta</text>
    <rect x="243" y="14" width="84" height="20" fill="none" stroke="black" stroke-dasharray="4"/>
    <text font-family="sans-serif" x="285" y="28" text-anchor="middle" font-size="10" fill="black">Vigente</text>
    <text font-family="sans-serif" x="16" y="54" font-size="12" fill="black">Jue 18 sep · 20:00 · Gratis</text>
    <text font-family="sans-serif" x="16" y="78" font-size="12" fill="black">3 interesados</text>
    <rect x="243" y="52" width="84" height="32" fill="none" stroke="black"/>
    <text font-family="sans-serif" x="285" y="72" text-anchor="middle" font-size="12" fill="black">Editar</text>
  </g>

  <g transform="translate(16,304)">
    <rect width="343" height="96" fill="none" stroke="black" stroke-dasharray="4"/>
    <text font-family="sans-serif" x="16" y="30" font-size="14" fill="black">Peña de agosto</text>
    <rect x="243" y="14" width="84" height="20" fill="none" stroke="black" stroke-dasharray="4"/>
    <text font-family="sans-serif" x="285" y="28" text-anchor="middle" font-size="10" fill="black">Finalizado</text>
    <text font-family="sans-serif" x="16" y="54" font-size="12" fill="black">Sab 23 ago · 21:00 · Bs 25</text>
    <text font-family="sans-serif" x="16" y="78" font-size="12" fill="black">18 interesados</text>
  </g>

  <text font-family="sans-serif" x="16" y="432" font-size="11" fill="black">Interesados no es lista de asistentes confirmados.</text>

  <g transform="translate(16,456)">
    <rect width="343" height="56" fill="none" stroke="black"/>
    <text font-family="sans-serif" x="171" y="34" text-anchor="middle" font-size="14" fill="black">Publicar otro evento</text>
  </g>

  <g transform="translate(0,740)">
    <rect width="375" height="72" fill="none" stroke="black" stroke-dasharray="4"/>
    <line x1="187" y1="0" x2="187" y2="72" stroke="black"/>
    <text font-family="sans-serif" x="94" y="42" text-anchor="middle" font-size="12" fill="black">Eventos</text>
    <text font-family="sans-serif" x="281" y="42" text-anchor="middle" font-size="12" fill="black">Publicar</text>
  </g>
</svg>
